<mxfile host="Electron" agent="Mozilla/5.0 (X11; Linux x86_64) AppleWebKit/537.36 (KHTML, like Gecko) draw.io/27.0.9 Chrome/134.0.6998.205 Electron/35.4.0 Safari/537.36" version="27.0.9" pages="2">
  <diagram name="Types" id="Jp-jZqLyKycIVKod_ED3">
    <mxGraphModel dx="786" dy="482" grid="1" gridSize="10" guides="1" tooltips="1" connect="1" arrows="1" fold="1" page="1" pageScale="1" pageWidth="827" pageHeight="1169" math="0" shadow="0">
      <root>
        <mxCell id="0" />
        <mxCell id="1" parent="0" />
        <mxCell id="NEGhBFhPxLPZY3lg1s2_-2" value="" style="rounded=1;whiteSpace=wrap;html=1;dashed=1;fillColor=none;arcSize=7;" vertex="1" parent="1">
          <mxGeometry x="10" y="10" width="810" height="380" as="geometry" />
        </mxCell>
        <mxCell id="NEGhBFhPxLPZY3lg1s2_-5" value="" style="rounded=1;whiteSpace=wrap;html=1;dashed=1;fillColor=none;arcSize=7;" vertex="1" parent="1">
          <mxGeometry x="30" y="60" width="180" height="300" as="geometry" />
        </mxCell>
        <mxCell id="NEGhBFhPxLPZY3lg1s2_-1" value="" style="sketch=0;aspect=fixed;pointerEvents=1;shadow=0;dashed=0;html=1;strokeColor=none;labelPosition=center;verticalLabelPosition=bottom;verticalAlign=top;align=center;fillColor=#4D9900;shape=mxgraph.mscae.enterprise.server_generic" vertex="1" parent="1">
          <mxGeometry x="90" y="130" width="33.6" height="70" as="geometry" />
        </mxCell>
        <mxCell id="NEGhBFhPxLPZY3lg1s2_-4" value="Vertical vs Horizontal Scale" style="text;html=1;align=left;verticalAlign=middle;whiteSpace=wrap;rounded=0;fontStyle=1;fontSize=20;" vertex="1" parent="1">
          <mxGeometry x="30" y="10" width="430" height="30" as="geometry" />
        </mxCell>
        <mxCell id="NEGhBFhPxLPZY3lg1s2_-6" value="Vertical Scaling" style="text;html=1;align=left;verticalAlign=middle;whiteSpace=wrap;rounded=0;fontStyle=1;fontSize=16;" vertex="1" parent="1">
          <mxGeometry x="40" y="70" width="160" height="30" as="geometry" />
        </mxCell>
        <mxCell id="NEGhBFhPxLPZY3lg1s2_-7" value="(Increase CPU, RAM, etc)" style="text;html=1;align=center;verticalAlign=middle;whiteSpace=wrap;rounded=0;" vertex="1" parent="1">
          <mxGeometry x="37" y="90" width="150" height="30" as="geometry" />
        </mxCell>
        <mxCell id="NEGhBFhPxLPZY3lg1s2_-8" value="" style="sketch=0;aspect=fixed;pointerEvents=1;shadow=0;dashed=0;html=1;strokeColor=none;labelPosition=center;verticalLabelPosition=bottom;verticalAlign=top;align=center;fillColor=#4D9900;shape=mxgraph.mscae.enterprise.server_generic" vertex="1" parent="1">
          <mxGeometry x="90" y="221" width="28.8" height="60" as="geometry" />
        </mxCell>
        <mxCell id="NEGhBFhPxLPZY3lg1s2_-9" value="" style="sketch=0;aspect=fixed;pointerEvents=1;shadow=0;dashed=0;html=1;strokeColor=none;labelPosition=center;verticalLabelPosition=bottom;verticalAlign=top;align=center;fillColor=#4D9900;shape=mxgraph.mscae.enterprise.server_generic" vertex="1" parent="1">
          <mxGeometry x="90" y="300" width="24" height="50" as="geometry" />
        </mxCell>
        <mxCell id="NEGhBFhPxLPZY3lg1s2_-10" value="" style="rounded=1;whiteSpace=wrap;html=1;dashed=1;fillColor=none;arcSize=7;" vertex="1" parent="1">
          <mxGeometry x="300" y="60" width="480" height="300" as="geometry" />
        </mxCell>
        <mxCell id="NEGhBFhPxLPZY3lg1s2_-12" value="Horizontal Scaling" style="text;html=1;align=left;verticalAlign=middle;whiteSpace=wrap;rounded=0;fontStyle=1;fontSize=16;" vertex="1" parent="1">
          <mxGeometry x="310" y="70" width="160" height="30" as="geometry" />
        </mxCell>
        <mxCell id="NEGhBFhPxLPZY3lg1s2_-13" value="(Add more servers)" style="text;html=1;align=center;verticalAlign=middle;whiteSpace=wrap;rounded=0;" vertex="1" parent="1">
          <mxGeometry x="307" y="90" width="150" height="30" as="geometry" />
        </mxCell>
        <mxCell id="NEGhBFhPxLPZY3lg1s2_-14" value="" style="sketch=0;aspect=fixed;pointerEvents=1;shadow=0;dashed=0;html=1;strokeColor=none;labelPosition=center;verticalLabelPosition=bottom;verticalAlign=top;align=center;fillColor=#4D9900;shape=mxgraph.mscae.enterprise.server_generic" vertex="1" parent="1">
          <mxGeometry x="360" y="221" width="28.8" height="60" as="geometry" />
        </mxCell>
        <mxCell id="NEGhBFhPxLPZY3lg1s2_-16" value="" style="sketch=0;aspect=fixed;pointerEvents=1;shadow=0;dashed=0;html=1;strokeColor=none;labelPosition=center;verticalLabelPosition=bottom;verticalAlign=top;align=center;fillColor=#4D9900;shape=mxgraph.mscae.enterprise.server_generic" vertex="1" parent="1">
          <mxGeometry x="420" y="221" width="28.8" height="60" as="geometry" />
        </mxCell>
        <mxCell id="NEGhBFhPxLPZY3lg1s2_-17" value="" style="sketch=0;aspect=fixed;pointerEvents=1;shadow=0;dashed=0;html=1;strokeColor=none;labelPosition=center;verticalLabelPosition=bottom;verticalAlign=top;align=center;fillColor=#4D9900;shape=mxgraph.mscae.enterprise.server_generic" vertex="1" parent="1">
          <mxGeometry x="480" y="221" width="28.8" height="60" as="geometry" />
        </mxCell>
        <mxCell id="NEGhBFhPxLPZY3lg1s2_-18" value="" style="sketch=0;aspect=fixed;pointerEvents=1;shadow=0;dashed=0;html=1;strokeColor=none;labelPosition=center;verticalLabelPosition=bottom;verticalAlign=top;align=center;fillColor=#4D9900;shape=mxgraph.mscae.enterprise.server_generic" vertex="1" parent="1">
          <mxGeometry x="540" y="221" width="28.8" height="60" as="geometry" />
        </mxCell>
        <mxCell id="NEGhBFhPxLPZY3lg1s2_-19" value="" style="sketch=0;aspect=fixed;pointerEvents=1;shadow=0;dashed=0;html=1;strokeColor=none;labelPosition=center;verticalLabelPosition=bottom;verticalAlign=top;align=center;fillColor=#4D9900;shape=mxgraph.mscae.enterprise.server_generic" vertex="1" parent="1">
          <mxGeometry x="710" y="221" width="28.8" height="60" as="geometry" />
        </mxCell>
        <mxCell id="NEGhBFhPxLPZY3lg1s2_-20" value="..." style="text;html=1;align=center;verticalAlign=middle;whiteSpace=wrap;rounded=0;fontStyle=1;fontSize=22;" vertex="1" parent="1">
          <mxGeometry x="610" y="251" width="60" height="30" as="geometry" />
        </mxCell>
        <mxCell id="NEGhBFhPxLPZY3lg1s2_-21" value="" style="verticalLabelPosition=bottom;html=1;verticalAlign=top;align=center;strokeColor=none;fillColor=#00BEF2;shape=mxgraph.azure.azure_load_balancer;" vertex="1" parent="1">
          <mxGeometry x="508.8" y="130" width="50" height="35" as="geometry" />
        </mxCell>
        <mxCell id="NEGhBFhPxLPZY3lg1s2_-22" style="edgeStyle=orthogonalEdgeStyle;rounded=0;orthogonalLoop=1;jettySize=auto;html=1;entryX=0.5;entryY=0;entryDx=0;entryDy=0;entryPerimeter=0;" edge="1" parent="1" source="NEGhBFhPxLPZY3lg1s2_-21" target="NEGhBFhPxLPZY3lg1s2_-14">
          <mxGeometry relative="1" as="geometry">
            <Array as="points">
              <mxPoint x="534" y="193" />
              <mxPoint x="374" y="193" />
            </Array>
          </mxGeometry>
        </mxCell>
        <mxCell id="NEGhBFhPxLPZY3lg1s2_-23" style="edgeStyle=orthogonalEdgeStyle;rounded=0;orthogonalLoop=1;jettySize=auto;html=1;entryX=0.5;entryY=0;entryDx=0;entryDy=0;entryPerimeter=0;" edge="1" parent="1" source="NEGhBFhPxLPZY3lg1s2_-21" target="NEGhBFhPxLPZY3lg1s2_-16">
          <mxGeometry relative="1" as="geometry">
            <Array as="points">
              <mxPoint x="534" y="193" />
              <mxPoint x="434" y="193" />
            </Array>
          </mxGeometry>
        </mxCell>
        <mxCell id="NEGhBFhPxLPZY3lg1s2_-24" style="edgeStyle=orthogonalEdgeStyle;rounded=0;orthogonalLoop=1;jettySize=auto;html=1;entryX=0.5;entryY=0;entryDx=0;entryDy=0;entryPerimeter=0;" edge="1" parent="1" source="NEGhBFhPxLPZY3lg1s2_-21" target="NEGhBFhPxLPZY3lg1s2_-17">
          <mxGeometry relative="1" as="geometry" />
        </mxCell>
        <mxCell id="NEGhBFhPxLPZY3lg1s2_-25" style="edgeStyle=orthogonalEdgeStyle;rounded=0;orthogonalLoop=1;jettySize=auto;html=1;entryX=0.5;entryY=0;entryDx=0;entryDy=0;entryPerimeter=0;" edge="1" parent="1" source="NEGhBFhPxLPZY3lg1s2_-21" target="NEGhBFhPxLPZY3lg1s2_-18">
          <mxGeometry relative="1" as="geometry" />
        </mxCell>
        <mxCell id="NEGhBFhPxLPZY3lg1s2_-26" style="edgeStyle=orthogonalEdgeStyle;rounded=0;orthogonalLoop=1;jettySize=auto;html=1;entryX=0.5;entryY=0;entryDx=0;entryDy=0;entryPerimeter=0;" edge="1" parent="1" source="NEGhBFhPxLPZY3lg1s2_-21" target="NEGhBFhPxLPZY3lg1s2_-19">
          <mxGeometry relative="1" as="geometry">
            <Array as="points">
              <mxPoint x="534" y="193" />
              <mxPoint x="724" y="193" />
            </Array>
          </mxGeometry>
        </mxCell>
        <mxCell id="NEGhBFhPxLPZY3lg1s2_-27" value="S1" style="text;html=1;align=center;verticalAlign=middle;whiteSpace=wrap;rounded=0;fontStyle=1" vertex="1" parent="1">
          <mxGeometry x="140" y="310" width="60" height="30" as="geometry" />
        </mxCell>
        <mxCell id="NEGhBFhPxLPZY3lg1s2_-28" value="S1" style="text;html=1;align=center;verticalAlign=middle;whiteSpace=wrap;rounded=0;fontSize=16;fontStyle=1" vertex="1" parent="1">
          <mxGeometry x="140" y="230" width="60" height="30" as="geometry" />
        </mxCell>
        <mxCell id="NEGhBFhPxLPZY3lg1s2_-29" value="S1" style="text;html=1;align=center;verticalAlign=middle;whiteSpace=wrap;rounded=0;fontSize=20;fontStyle=1" vertex="1" parent="1">
          <mxGeometry x="140" y="140" width="60" height="30" as="geometry" />
        </mxCell>
        <mxCell id="NEGhBFhPxLPZY3lg1s2_-30" value="S1" style="text;html=1;align=center;verticalAlign=middle;whiteSpace=wrap;rounded=0;fontStyle=1" vertex="1" parent="1">
          <mxGeometry x="356.59999999999997" y="290" width="35.6" height="30" as="geometry" />
        </mxCell>
        <mxCell id="NEGhBFhPxLPZY3lg1s2_-32" value="S2" style="text;html=1;align=center;verticalAlign=middle;whiteSpace=wrap;rounded=0;fontStyle=1" vertex="1" parent="1">
          <mxGeometry x="416.59999999999997" y="290" width="35.6" height="30" as="geometry" />
        </mxCell>
        <mxCell id="NEGhBFhPxLPZY3lg1s2_-33" value="S3" style="text;html=1;align=center;verticalAlign=middle;whiteSpace=wrap;rounded=0;fontStyle=1" vertex="1" parent="1">
          <mxGeometry x="476.59999999999997" y="290" width="35.6" height="30" as="geometry" />
        </mxCell>
        <mxCell id="NEGhBFhPxLPZY3lg1s2_-34" value="Sn" style="text;html=1;align=center;verticalAlign=middle;whiteSpace=wrap;rounded=0;fontStyle=1" vertex="1" parent="1">
          <mxGeometry x="706.6" y="290" width="35.6" height="30" as="geometry" />
        </mxCell>
        <mxCell id="NEGhBFhPxLPZY3lg1s2_-35" value="S4" style="text;html=1;align=center;verticalAlign=middle;whiteSpace=wrap;rounded=0;fontStyle=1" vertex="1" parent="1">
          <mxGeometry x="536.6" y="290" width="35.6" height="30" as="geometry" />
        </mxCell>
      </root>
    </mxGraphModel>
  </diagram>
  <diagram id="iV2Z2U8mLzadsnobxKT-" name="Horizontal">
    <mxGraphModel dx="786" dy="2820" grid="1" gridSize="10" guides="1" tooltips="1" connect="1" arrows="1" fold="1" page="1" pageScale="1" pageWidth="827" pageHeight="1169" math="0" shadow="0">
      <root>
        <mxCell id="0" />
        <mxCell id="1" parent="0" />
        <mxCell id="r7D8eBOgcNwaHfl7dpw--1" value="" style="rounded=1;whiteSpace=wrap;html=1;dashed=1;fillColor=none;arcSize=7;" vertex="1" parent="1">
          <mxGeometry x="9" y="-2328" width="810" height="380" as="geometry" />
        </mxCell>
        <mxCell id="r7D8eBOgcNwaHfl7dpw--34" value="" style="rounded=1;whiteSpace=wrap;html=1;dashed=1;fillColor=none;arcSize=7;" vertex="1" parent="1">
          <mxGeometry x="440" y="-2132" width="220" height="170" as="geometry" />
        </mxCell>
        <mxCell id="r7D8eBOgcNwaHfl7dpw--4" value="Horizontal Scale" style="text;html=1;align=left;verticalAlign=middle;whiteSpace=wrap;rounded=0;fontStyle=1;fontSize=20;" vertex="1" parent="1">
          <mxGeometry x="29" y="-2328" width="430" height="30" as="geometry" />
        </mxCell>
        <mxCell id="r7D8eBOgcNwaHfl7dpw--12" value="" style="sketch=0;aspect=fixed;pointerEvents=1;shadow=0;dashed=0;html=1;strokeColor=none;labelPosition=center;verticalLabelPosition=bottom;verticalAlign=top;align=center;fillColor=#4D9900;shape=mxgraph.mscae.enterprise.server_generic" vertex="1" parent="1">
          <mxGeometry x="462.4" y="-2089" width="28.8" height="60" as="geometry" />
        </mxCell>
        <mxCell id="r7D8eBOgcNwaHfl7dpw--13" value="" style="sketch=0;aspect=fixed;pointerEvents=1;shadow=0;dashed=0;html=1;strokeColor=none;labelPosition=center;verticalLabelPosition=bottom;verticalAlign=top;align=center;fillColor=#4D9900;shape=mxgraph.mscae.enterprise.server_generic" vertex="1" parent="1">
          <mxGeometry x="603.4" y="-2089" width="28.8" height="60" as="geometry" />
        </mxCell>
        <mxCell id="r7D8eBOgcNwaHfl7dpw--18" value="" style="verticalLabelPosition=bottom;html=1;verticalAlign=top;align=center;strokeColor=none;fillColor=#00BEF2;shape=mxgraph.azure.azure_load_balancer;" vertex="1" parent="1">
          <mxGeometry x="520" y="-2180" width="50" height="35" as="geometry" />
        </mxCell>
        <mxCell id="r7D8eBOgcNwaHfl7dpw--19" style="edgeStyle=orthogonalEdgeStyle;rounded=0;orthogonalLoop=1;jettySize=auto;html=1;entryX=0.5;entryY=0;entryDx=0;entryDy=0;entryPerimeter=0;exitX=0.5;exitY=1;exitDx=0;exitDy=0;exitPerimeter=0;" edge="1" parent="1" source="r7D8eBOgcNwaHfl7dpw--18" target="r7D8eBOgcNwaHfl7dpw--12">
          <mxGeometry relative="1" as="geometry">
            <Array as="points">
              <mxPoint x="545" y="-2117" />
              <mxPoint x="477" y="-2117" />
            </Array>
          </mxGeometry>
        </mxCell>
        <mxCell id="r7D8eBOgcNwaHfl7dpw--27" value="S1" style="text;html=1;align=center;verticalAlign=middle;whiteSpace=wrap;rounded=0;fontStyle=1" vertex="1" parent="1">
          <mxGeometry x="458.9999999999999" y="-2028" width="35.6" height="30" as="geometry" />
        </mxCell>
        <mxCell id="r7D8eBOgcNwaHfl7dpw--28" value="S2" style="text;html=1;align=center;verticalAlign=middle;whiteSpace=wrap;rounded=0;fontStyle=1" vertex="1" parent="1">
          <mxGeometry x="599.9999999999999" y="-2028" width="35.6" height="30" as="geometry" />
        </mxCell>
        <mxCell id="r7D8eBOgcNwaHfl7dpw--32" style="edgeStyle=orthogonalEdgeStyle;rounded=0;orthogonalLoop=1;jettySize=auto;html=1;entryX=0.5;entryY=0;entryDx=0;entryDy=0;entryPerimeter=0;exitX=0.5;exitY=1;exitDx=0;exitDy=0;exitPerimeter=0;" edge="1" parent="1" source="r7D8eBOgcNwaHfl7dpw--18" target="r7D8eBOgcNwaHfl7dpw--13">
          <mxGeometry relative="1" as="geometry">
            <Array as="points">
              <mxPoint x="545" y="-2117" />
              <mxPoint x="618" y="-2117" />
            </Array>
          </mxGeometry>
        </mxCell>
        <mxCell id="r7D8eBOgcNwaHfl7dpw--35" value="Private IP&lt;div&gt;10.0.0.1&lt;/div&gt;" style="text;html=1;align=center;verticalAlign=middle;whiteSpace=wrap;rounded=0;" vertex="1" parent="1">
          <mxGeometry x="446.8" y="-2002" width="60" height="30" as="geometry" />
        </mxCell>
        <mxCell id="r7D8eBOgcNwaHfl7dpw--36" value="Private IP&lt;div&gt;10.0.0.2&lt;/div&gt;" style="text;html=1;align=center;verticalAlign=middle;whiteSpace=wrap;rounded=0;" vertex="1" parent="1">
          <mxGeometry x="590" y="-2002" width="60" height="30" as="geometry" />
        </mxCell>
        <mxCell id="r7D8eBOgcNwaHfl7dpw--37" value="Load Balancer" style="text;html=1;align=center;verticalAlign=middle;whiteSpace=wrap;rounded=0;fontStyle=1" vertex="1" parent="1">
          <mxGeometry x="580" y="-2180" width="60" height="30" as="geometry" />
        </mxCell>
        <mxCell id="r7D8eBOgcNwaHfl7dpw--71" style="edgeStyle=orthogonalEdgeStyle;rounded=0;orthogonalLoop=1;jettySize=auto;html=1;" edge="1" parent="1" source="r7D8eBOgcNwaHfl7dpw--38" target="r7D8eBOgcNwaHfl7dpw--43">
          <mxGeometry relative="1" as="geometry" />
        </mxCell>
        <mxCell id="r7D8eBOgcNwaHfl7dpw--38" value="" style="rounded=1;whiteSpace=wrap;html=1;dashed=1;fillColor=none;arcSize=7;" vertex="1" parent="1">
          <mxGeometry x="437" y="-2310" width="220" height="100" as="geometry" />
        </mxCell>
        <mxCell id="r7D8eBOgcNwaHfl7dpw--39" value="" style="sketch=0;aspect=fixed;pointerEvents=1;shadow=0;dashed=0;html=1;strokeColor=none;labelPosition=center;verticalLabelPosition=bottom;verticalAlign=top;align=center;fillColor=#0000CC;shape=mxgraph.azure.mobile" vertex="1" parent="1">
          <mxGeometry x="587" y="-2290" width="35" height="50" as="geometry" />
        </mxCell>
        <mxCell id="r7D8eBOgcNwaHfl7dpw--40" value="" style="sketch=0;pointerEvents=1;shadow=0;dashed=0;html=1;strokeColor=none;fillColor=#0000CC;aspect=fixed;labelPosition=center;verticalLabelPosition=bottom;verticalAlign=top;align=center;outlineConnect=0;shape=mxgraph.vvd.web_browser;" vertex="1" parent="1">
          <mxGeometry x="488.2" y="-2282.75" width="50" height="35.5" as="geometry" />
        </mxCell>
        <mxCell id="r7D8eBOgcNwaHfl7dpw--41" value="Public IP&lt;div&gt;88.132.157.127&lt;/div&gt;" style="text;html=1;align=center;verticalAlign=middle;whiteSpace=wrap;rounded=0;" vertex="1" parent="1">
          <mxGeometry x="440" y="-2180" width="60" height="30" as="geometry" />
        </mxCell>
        <mxCell id="r7D8eBOgcNwaHfl7dpw--42" style="edgeStyle=orthogonalEdgeStyle;rounded=0;orthogonalLoop=1;jettySize=auto;html=1;entryX=0.527;entryY=0.162;entryDx=0;entryDy=0;entryPerimeter=0;" edge="1" parent="1" source="r7D8eBOgcNwaHfl7dpw--38" target="r7D8eBOgcNwaHfl7dpw--18">
          <mxGeometry relative="1" as="geometry" />
        </mxCell>
        <mxCell id="r7D8eBOgcNwaHfl7dpw--43" value="" style="sketch=0;pointerEvents=1;shadow=0;dashed=0;html=1;strokeColor=none;fillColor=#009999;labelPosition=center;verticalLabelPosition=bottom;verticalAlign=top;align=center;outlineConnect=0;shape=mxgraph.veeam2.dns;" vertex="1" parent="1">
          <mxGeometry x="140" y="-2287" width="54" height="54" as="geometry" />
        </mxCell>
        <mxCell id="r7D8eBOgcNwaHfl7dpw--57" value="" style="childLayout=tableLayout;recursiveResize=0;shadow=0;fillColor=none;" vertex="1" parent="1">
          <mxGeometry x="48" y="-2172" width="250" height="93" as="geometry" />
        </mxCell>
        <mxCell id="r7D8eBOgcNwaHfl7dpw--58" value="" style="shape=tableRow;horizontal=0;startSize=0;swimlaneHead=0;swimlaneBody=0;top=0;left=0;bottom=0;right=0;dropTarget=0;collapsible=0;recursiveResize=0;expand=0;fontStyle=0;fillColor=none;strokeColor=inherit;" vertex="1" parent="r7D8eBOgcNwaHfl7dpw--57">
          <mxGeometry width="250" height="47" as="geometry" />
        </mxCell>
        <mxCell id="r7D8eBOgcNwaHfl7dpw--59" value="domain" style="connectable=0;recursiveResize=0;strokeColor=inherit;fillColor=none;align=center;whiteSpace=wrap;html=1;" vertex="1" parent="r7D8eBOgcNwaHfl7dpw--58">
          <mxGeometry width="120" height="47" as="geometry">
            <mxRectangle width="120" height="47" as="alternateBounds" />
          </mxGeometry>
        </mxCell>
        <mxCell id="r7D8eBOgcNwaHfl7dpw--60" value="IP" style="connectable=0;recursiveResize=0;strokeColor=inherit;fillColor=none;align=center;whiteSpace=wrap;html=1;" vertex="1" parent="r7D8eBOgcNwaHfl7dpw--58">
          <mxGeometry x="120" width="130" height="47" as="geometry">
            <mxRectangle width="130" height="47" as="alternateBounds" />
          </mxGeometry>
        </mxCell>
        <mxCell id="r7D8eBOgcNwaHfl7dpw--62" style="shape=tableRow;horizontal=0;startSize=0;swimlaneHead=0;swimlaneBody=0;top=0;left=0;bottom=0;right=0;dropTarget=0;collapsible=0;recursiveResize=0;expand=0;fontStyle=0;fillColor=none;strokeColor=inherit;" vertex="1" parent="r7D8eBOgcNwaHfl7dpw--57">
          <mxGeometry y="47" width="250" height="46" as="geometry" />
        </mxCell>
        <mxCell id="r7D8eBOgcNwaHfl7dpw--63" value="api.mysite.com" style="connectable=0;recursiveResize=0;strokeColor=inherit;fillColor=none;align=center;whiteSpace=wrap;html=1;" vertex="1" parent="r7D8eBOgcNwaHfl7dpw--62">
          <mxGeometry width="120" height="46" as="geometry">
            <mxRectangle width="120" height="46" as="alternateBounds" />
          </mxGeometry>
        </mxCell>
        <mxCell id="r7D8eBOgcNwaHfl7dpw--64" value="88.132.157.127" style="connectable=0;recursiveResize=0;strokeColor=inherit;fillColor=none;align=center;whiteSpace=wrap;html=1;" vertex="1" parent="r7D8eBOgcNwaHfl7dpw--62">
          <mxGeometry x="120" width="130" height="46" as="geometry">
            <mxRectangle width="130" height="46" as="alternateBounds" />
          </mxGeometry>
        </mxCell>
        <mxCell id="r7D8eBOgcNwaHfl7dpw--70" style="edgeStyle=orthogonalEdgeStyle;rounded=0;orthogonalLoop=1;jettySize=auto;html=1;entryX=0.479;entryY=0.05;entryDx=0;entryDy=0;entryPerimeter=0;" edge="1" parent="1" source="r7D8eBOgcNwaHfl7dpw--43" target="r7D8eBOgcNwaHfl7dpw--58">
          <mxGeometry relative="1" as="geometry" />
        </mxCell>
      </root>
    </mxGraphModel>
  </diagram>
</mxfile>
